<svg width="45" height="55" viewBox="0 0 45 55" fill="none" xmlns="http://www.w3.org/2000/svg">
    <path d="M35 35L31 39H34V44H29V41L25 45L29 49V46H34V51H31L35 55L39 51H36V46H41V49L45 45L41 41V44H36V39H39L35 35Z"
          fill="#36D9D8"/>
    <path d="M0 0V46H36V13.4141L22.4102 0H0ZM2 2H21V15H34V44H2V2ZM23 3.39062L32.7344 13H23V3.39062ZM26.5 19.332C25.457 19.3359 24.6094 20.1562 24.6094 21.168C24.6133 22.1797 25.457 23 26.5 23C27.543 23 28.3867 22.1797 28.3906 21.168C28.3906 20.1562 27.543 19.3359 26.5 19.332ZM14.168 22C13.8359 21.9883 13.5195 22.1367 13.3242 22.4062L5.86328 32.4883C5.64063 32.793 5.60547 33.1953 5.77344 33.5312C5.94531 33.8711 6.28906 34.082 6.66797 34.082H21.4258C21.4492 34.082 21.4727 34.082 21.4961 34.082C21.5 34.082 21.5 34.082 21.5039 34.082L28.0156 34C28.3984 33.9961 28.7422 33.7695 28.9062 33.4219C29.0664 33.0742 29.0156 32.668 28.7773 32.3711L22.2695 24.3867C22.0781 24.1484 21.7852 24.0117 21.4805 24.0156C21.1641 24.0234 20.8711 24.1758 20.6875 24.4297L18.5547 27.3633L14.9375 22.4102C14.7539 22.1641 14.4727 22.0117 14.168 22ZM14.125 24.6875L17.7539 29.6602C17.7578 29.668 17.7617 29.6719 17.7656 29.6758L19.5234 32.082H8.65234L14.125 24.6875ZM21.5391 26.6562L25.918 32.0273L22 32.0781L19.7969 29.0625L21.5391 26.6562Z"
          fill="#36D9D8"/>
</svg>
