<svg width="17" height="15" viewBox="0 0 17 15" fill="none" xmlns="http://www.w3.org/2000/svg">
<path d="M4.55357 0C2.04199 0 0 2.06571 0 4.55357C0 5.4216 0.393694 6.17341 0.758929 6.71652C1.12416 7.25963 1.49888 7.60826 1.49888 7.60826L8.06362 14.192L8.5 14.6283L8.93638 14.192L15.5011 7.60826C15.5011 7.60826 17 6.28725 17 4.55357C17 2.06571 14.958 0 12.4464 0C10.3617 0 9.01939 1.2546 8.5 1.78348C7.98061 1.2546 6.63825 0 4.55357 0ZM4.55357 1.21429C6.36789 1.21429 8.04464 2.97879 8.04464 2.97879L8.5 3.49107L8.95536 2.97879C8.95536 2.97879 10.6321 1.21429 12.4464 1.21429C14.2939 1.21429 15.7857 2.72977 15.7857 4.55357C15.7857 5.49037 14.6473 6.75446 14.6473 6.75446L8.5 12.9018L2.35268 6.75446C2.35268 6.75446 2.05859 6.47224 1.76451 6.03348C1.47042 5.59473 1.21429 5.02316 1.21429 4.55357C1.21429 2.72977 2.70605 1.21429 4.55357 1.21429Z" fill="#36D9D8"/>
</svg>
