<svg width="35" height="35" viewBox="0 0 35 35" fill="none" xmlns="http://www.w3.org/2000/svg">
<path d="M31.1111 35C33.2365 35 35 33.2365 35 31.1111L35 3.88889C35 1.76349 33.2365 -1.54169e-07 31.1111 -3.39977e-07L3.88889 -2.71982e-06C1.76349 -2.90563e-06 2.90563e-06 1.76349 2.71982e-06 3.88889L3.39977e-07 31.1111C1.54169e-07 33.2365 1.76349 35 3.88889 35L31.1111 35ZM31.1111 31.1111L3.88889 31.1111L3.88889 3.88889L31.1111 3.88889L31.1111 31.1111ZM17.5 27.2222L27.2222 17.5L19.4444 17.5L19.4444 7.77778L15.5556 7.77778L15.5556 17.5L7.77778 17.5L17.5 27.2222Z" fill="#36D9D8"/>
</svg>
