<svg width="18" height="18" viewBox="0 0 18 18" fill="none" xmlns="http://www.w3.org/2000/svg">
    <path d="M2 0C0.905745 0 0 0.905745 0 2V16C0 17.0943 0.905745 18 2 18H16C17.0943 18 18 17.0943 18 16V4L14 0H2ZM2 2H13.1719L16 4.82812V16H2V2ZM4 4V7H12V4H4ZM8.5 9C7.83696 9 7.20107 9.26339 6.73223 9.73223C6.26339 10.2011 6 10.837 6 11.5C6 12.163 6.26339 12.7989 6.73223 13.2678C7.20107 13.7366 7.83696 14 8.5 14C9.16304 14 9.79893 13.7366 10.2678 13.2678C10.7366 12.7989 11 12.163 11 11.5C11 10.837 10.7366 10.2011 10.2678 9.73223C9.79893 9.26339 9.16304 9 8.5 9Z"
          fill="#36D9D8"/>
</svg>
