<svg width="39" height="40" viewBox="0 0 39 40" fill="none" xmlns="http://www.w3.org/2000/svg">
    <path d="M30.5965 14.0127C30.5965 14.0127 29.8672 14.0492 28.9338 14.4501C28.0003 14.851 26.7313 15.6018 25.2582 17.0743C22.3119 20.0193 21.3201 23.0518 21.3201 23.0518C21.1524 23.3798 21.1925 23.7735 21.4222 24.0614C21.6519 24.3493 22.0275 24.4733 22.3849 24.3821C22.7386 24.291 23.0084 23.9994 23.0704 23.635C23.0704 23.635 23.9455 21.069 26.6001 18.4156C27.9274 17.0889 28.9921 16.4401 29.6922 16.1413C30.1444 15.9481 30.1553 15.9845 30.2756 15.9663L31.355 17.0452C29.8964 18.1714 27.9383 19.7897 25.9583 21.7688C21.9983 25.7271 18.3155 30.7204 18.3155 30.7204L22.2828 34.686C22.2828 34.686 27.2783 31.0047 31.2383 27.0465C35.1983 23.0882 37.7434 19.2321 37.7434 19.2321L33.7762 15.2665C33.7762 15.2665 33.4261 15.5326 32.901 15.908L31.2675 14.2751C31.0888 14.1002 30.8445 14.0054 30.5965 14.0127ZM36.81 14.0127C36.2156 14.0783 35.5155 14.3736 34.6221 14.8L38.2102 18.3865C39.0634 16.6005 39.3734 15.6128 38.3852 14.625C37.8929 14.133 37.4043 13.9471 36.81 14.0127ZM17.6737 31.3619C16.4376 33.4249 16.073 35.1343 15.9818 36.1147L15.1942 36.8728C14.9353 37.1316 14.9353 37.5471 15.1942 37.8059C15.4531 38.0647 15.8688 38.0647 16.1276 37.8059L16.9153 37.0186C17.8998 36.9239 19.5954 36.5521 21.641 35.3275L17.6737 31.3619Z"
          fill="#36D9D8"/>
    <path fill-rule="evenodd" clip-rule="evenodd"
          d="M4.53577 6.19437C7.14456 2.73952 11.5012 0.0925903 17.9561 0.0925903C23.8076 0.0925903 28.132 1.98546 30.9146 5.10647C32.528 6.91608 33.6152 9.10636 34.2439 11.5268L32.3334 12.1C31.7742 9.89868 30.8089 7.95734 29.4124 6.39095C27.0329 3.72205 23.3779 2.04699 17.9561 2.04699C12.0431 2.04699 8.41902 4.3376 6.13927 7.3567C3.85952 10.3758 2.99268 14.2045 2.99268 17.0944V20.5146C2.99486 20.6622 2.96289 20.8083 2.89915 20.9421C2.90672 21.0811 2.88386 21.2202 2.83211 21.3498C2.78036 21.4795 2.70092 21.5969 2.59911 21.6941C2.28937 21.9975 1.99512 22.5091 1.99512 23.3507C1.99512 24.8165 3.09403 25.9461 4.49291 26.0934C4.67521 26.1126 4.84857 26.1807 4.99396 26.2901C5.13935 26.3995 5.25114 26.5461 5.31707 26.7137C6.64003 30.0686 8.32792 33.2449 10.4198 35.5237C11.2529 36.4313 12.1381 37.196 13.0928 37.7876L12.6397 39.7772C11.2622 39.0323 10.0266 38.0182 8.93516 36.8292C6.68874 34.382 5.00809 31.1777 3.66096 27.8531C1.58781 27.3429 0 25.5678 0 23.3507C0 22.1692 0.416513 21.2148 0.999507 20.5413C0.998733 20.5324 0.998083 20.5235 0.997559 20.5146V17.0944C0.997559 13.8318 1.92699 9.64922 4.53577 6.19437ZM11.6092 6.02183C11.7336 5.97443 11.8665 5.95198 11.9999 5.95579C12.2009 5.96184 12.3953 6.02722 12.5576 6.14335C12.72 6.25949 12.8427 6.42097 12.9098 6.60663C13.7764 8.99624 15.0058 9.91402 16.5571 10.4047C18.1084 10.8954 28.2167 10.9945 28.2167 10.9945C28.2167 10.9945 27.1676 11.7694 26.2928 12.9183C24.3698 12.9242 17.9744 12.9081 15.9434 12.2656C14.6598 11.8596 13.5393 10.9276 12.5611 9.70809C12.1398 12.4226 11.3571 14.5022 10.2932 15.7545C9.6826 16.4732 9.08853 17.027 8.57518 17.5055C7.89176 18.1426 7.3514 18.6463 7.10566 19.2282C7.05677 19.3485 6.98396 19.4581 6.89146 19.5506C6.79896 19.6431 6.68862 19.7167 6.56684 19.767C6.44506 19.8174 6.31428 19.8436 6.18209 19.844C6.0499 19.8445 5.91894 19.8192 5.79682 19.7696C5.6747 19.72 5.56385 19.6472 5.47072 19.5553C5.37758 19.4634 5.30402 19.3543 5.25431 19.2343C5.2046 19.1143 5.17972 18.9858 5.18113 18.8563C5.18254 18.7268 5.2102 18.5989 5.26251 18.48C5.75917 17.3041 6.59021 16.5609 7.43244 15.8077C7.88874 15.3997 8.34833 14.9887 8.75981 14.5044C9.93079 13.1261 10.9731 11.1638 10.9731 6.93299C10.9731 6.80223 10.9998 6.67278 11.0518 6.55232C11.1038 6.43186 11.1799 6.32284 11.2756 6.23172C11.3714 6.14059 11.4848 6.06922 11.6092 6.02183ZM10.9731 23.0568C10.9731 22.2477 11.6435 21.591 12.4695 21.591C13.2955 21.591 13.9658 22.2477 13.9658 23.0568C13.9658 23.8659 13.2955 24.5226 12.4695 24.5226C11.6435 24.5226 10.9731 23.8659 10.9731 23.0568Z"
          fill="#36D9D8"/>
</svg>
