<svg width="16" height="16" viewBox="0 0 16 16" fill="none" xmlns="http://www.w3.org/2000/svg">
    <path d="M8 0C5.79948 0 4 1.79948 4 4V5.33333H5.33333V4C5.33333 2.52083 6.52083 1.33333 8 1.33333C9.47917 1.33333 10.6667 2.52083 10.6667 4V7.33333H2V16H14V7.33333H12V4C12 1.79948 10.2005 0 8 0Z"
          fill="#9497AA"/>
    <path d="M8 0C5.79948 0 4 1.79948 4 4V7.33333H5.33333V4C5.33333 2.52083 6.52083 1.33333 8 1.33333C9.47917 1.33333 10.6667 2.52083 10.6667 4V7.33333H2V16H14V7.33333H12V4C12 1.79948 10.2005 0 8 0Z"
          fill="#36D9D8"/>
</svg>
